<?xml version="1.0" encoding="utf-8"?>
<!-- Generator: Adobe Illustrator 26.0.0, SVG Export Plug-In . SVG Version: 6.00 Build 0)  -->
<svg version="1.1" id="Layer_1" xmlns="http://www.w3.org/2000/svg" xmlns:xlink="http://www.w3.org/1999/xlink" x="0px" y="0px"
	 viewBox="0 0 140 86.6" style="enable-background:new 0 0 140 86.6;" xml:space="preserve">
<style type="text/css">
	.st0{fill:#0CA84F;}
	.st1{fill:#1BAABD;}
	.st2{fill:#1FABE2;}
	.st3{fill:#989898;}
	.st4{fill:#FFFFFF;}
</style>
<g transform="translate(0.01 0.01)">
	<path class="st0" d="M36.8,9c0.5-4.7,4.2-8.4,8.9-9C46.2,0,46.7,0,47.2,0h47.1c4.8,0,8.9,3.3,9.9,8c0.2,1.1,0.3,2.2,0.3,3.3
		c0,0.3-0.1,0.4-0.4,0.4h-5.5c-2.7,0-5.4,0-8.1,0c-3,0.1-5.6,2.2-6.1,5.2c-0.1,0.6-0.2,1.1-0.2,1.7c0,1.5-0.1,3,0.1,4.6
		c0.3,3.3,3.1,5.8,6.4,5.8H104c0.4,0,0.5,0.1,0.5,0.4c0.1,1.6-0.1,3.3-0.5,4.9c-1.1,3.8-4.4,6.6-8.4,7.1c-0.3,0-0.6,0.1-1,0H80.4
		c-0.2-0.2-0.1-0.4-0.1-0.6c0-2.2-0.1-4.3,0-6.4c0.1-3.3,0.1-6.7,0.1-10c0-4.2-3.4-7.6-7.6-7.6H44.5c-1.9,0-3.7-0.6-5.1-1.8
		C37.7,13.4,36.7,11.3,36.8,9L36.8,9z"/>
	<path class="st1" d="M36.8,9c0.1,2.1,0.9,4,2.4,5.5c1.1,1.1,2.6,1.7,4.1,1.9c0.6,0.1,1.2,0.1,1.8,0.1c9.1,0,18.3,0,27.4,0
		c3.8,0,7,2.6,7.8,6.2c0.2,1.2,0.3,2.5,0.2,3.8v4c0,3.4-0.1,6.9-0.1,10.3v0.5l0,0c-0.2,0.1-0.4,0.1-0.6,0.1c-11.2,0-22.4,0-33.6,0
		c-2.3,0-4.6-1-6.2-2.6c-1.3-1.2-2.3-2.8-2.9-4.6c-0.2-0.5-0.1-1-0.3-1.5c-0.1-0.3-0.1-0.7-0.1-1c0-7.4,0-14.7,0-22.1
		C36.7,9.4,36.8,9.2,36.8,9z"/>
	<path class="st2" d="M36.9,32.7c0.2,0.2,0.1,0.4,0.2,0.6c0.5,2.1,1.6,4,3.2,5.5c1.4,1.3,3.2,2.2,5.2,2.4c0.5,0.1,1,0.1,1.5,0.1
		h32.9c0.2,0,0.4,0,0.6,0c0,0.7,0,1.5-0.1,2.2c-0.9,3.4-4,5.8-7.5,5.8H44.7c-4,0-7.3-3-7.7-7c-0.1-0.9-0.1-1.8-0.1-2.7
		c0-2.3,0-4.5,0-6.8C36.8,32.9,36.8,32.8,36.9,32.7z"/>
	<path class="st0" d="M91.7,24.7c-2.3,0-4.1-1.8-4.1-4.1c0-2.3,1.8-4.1,4.1-4.1s4.1,1.8,4.1,4.1c0,1.1-0.4,2.1-1.2,2.9
		C93.9,24.3,92.8,24.7,91.7,24.7z"/>
	<path class="st3" d="M36.7,86.5h-3.2c0.1-0.1,0.3-0.2,0.4-0.1h2.4C36.4,86.4,36.5,86.4,36.7,86.5z"/>
	<path class="st4" d="M139.9,72.3L139.9,72.3l-0.1,1.9h0.1C140,73.5,140,72.9,139.9,72.3z"/>
	<path d="M66.5,72.3c-0.7,2.1-1.4,4.1-2,6.1c-0.9,2.6-1.7,5.2-2.6,7.7c-0.1,0.3-0.2,0.4-0.5,0.4c-0.7,0-1.4,0-2,0
		c-0.2,0-0.5-0.1-0.5-0.4c0,0,0,0,0,0l-3-10.8c-0.1-0.3-0.2-0.6-0.2-0.9c-0.2,0.1-0.2,0.3-0.2,0.4c-1.1,3.7-2.2,7.5-3.2,11.2
		c-0.1,0.3-0.2,0.4-0.6,0.4c-0.7,0-1.4,0-2.1,0c-0.2,0-0.3,0-0.4-0.3c-1.5-4.6-3-9.2-4.6-13.9c0,0,0-0.1,0-0.1H47
		c0.3,0,0.2,0.2,0.3,0.3c0.8,3,1.7,6,2.5,9c0.2,0.9,0.5,1.7,0.7,2.6c0,0.2,0,0.4,0.3,0.4s0.2-0.2,0.2-0.4c1.1-3.8,2.1-7.6,3.2-11.5
		c0.1-0.3,0.2-0.5,0.6-0.4c0.6,0,1.2,0,1.8,0c0.3,0,0.4,0.1,0.5,0.4c1.1,3.8,2.1,7.7,3.2,11.5c0,0.2,0,0.4,0.3,0.4s0.2-0.3,0.3-0.4
		c1.1-3.8,2.1-7.7,3.2-11.5c0-0.2,0.2-0.4,0.5-0.4c0,0,0,0,0,0C65.1,72.3,65.8,72.3,66.5,72.3z"/>
	<path d="M27.8,86.3L22,72.6c-0.1-0.2-0.2-0.3-0.4-0.3c-0.8,0-1.6,0-2.4,0c-0.3,0-0.5,0.1-0.6,0.4c-1.3,3-2.6,6-3.9,9
		c-0.7,1.5-1.3,3.1-2,4.7h2.8c0.2,0,0.3-0.1,0.3-0.3c0.3-0.7,0.6-1.5,0.9-2.2c0.1-0.2,0.3-0.3,0.5-0.3h6.2c0.2,0,0.4,0.1,0.4,0.3
		c0.3,0.8,0.6,1.5,0.9,2.3c0.1,0.1,0.1,0.3,0.3,0.3h2.9C27.8,86.4,27.8,86.3,27.8,86.3z M22.4,81.3H18c-0.2,0-0.3,0-0.2-0.2
		c0.8-1.9,1.6-3.8,2.4-5.8c0.8,2,1.6,3.9,2.3,5.8C22.7,81.2,22.6,81.3,22.4,81.3z"/>
	<path d="M10.2,73.7c-1-0.9-2.3-1.4-3.6-1.4c-2.1-0.1-4.2,0-6.3,0C0,72.3,0,72.4,0,72.8V86c0,0.4,0.1,0.4,0.4,0.4c0.7,0,1.4,0,2.2,0
		c0.3,0,0.4-0.1,0.4-0.4v-3.4c0-0.3,0.1-0.4,0.4-0.4c1.2,0,2.3,0,3.4,0c2.6,0.1,4.7-2,4.8-4.5c0,0,0-0.1,0-0.1
		C11.8,76.2,11.3,74.7,10.2,73.7z M6.9,79.8c-1.2,0.2-2.5,0.2-3.7,0.1c-0.3,0-0.2-0.2-0.2-0.3V75c0-0.1,0-0.3,0.2-0.3
		c1.2,0,2.3,0,3.5,0.1c1.2,0.1,2.1,1.1,2.1,2.3C8.9,78.4,8.1,79.5,6.9,79.8L6.9,79.8z"/>
	<path d="M113.8,79.4v-6.7c0-0.4,0.1-0.5,0.5-0.5c3.2,0,6.4,0,9.7,0c0.4,0,0.5,0.1,0.5,0.5c0,0.3,0,0.6,0,1c0,0.3-0.1,0.4-0.4,0.4
		h-7.3c-0.4,0-0.5,0.1-0.5,0.5c0,1.2,0,2.3,0,3.4c0,0.3,0.1,0.5,0.4,0.5h6.5c0.4,0,0.5,0.1,0.4,0.5c-0.1,0.5,0.2,1.1-0.1,1.3
		s-0.8,0.1-1.3,0.1h-5.6c-0.3,0-0.4,0.1-0.4,0.4c0,1.2,0,2.3,0,3.5c0,0.4,0.1,0.5,0.5,0.5h7.4c0.4,0,0.6,0.1,0.5,0.5
		s0.2,1.1-0.1,1.3s-0.8,0.1-1.3,0.1h-9c-0.4,0-0.5-0.1-0.5-0.5C113.8,83.8,113.8,81.6,113.8,79.4z"/>
	<path d="M41.9,72.2c0,0.2-0.1,0.4-0.2,0.5c-1.6,2.9-3.2,5.9-4.8,8.8c-0.1,0.3-0.2,0.5-0.2,0.8v4.1h-3.2c0-1.3,0-2.6,0-4
		c0-0.3-0.1-0.7-0.2-1c-1.6-3-3.2-6-4.9-9c-0.1-0.1-0.1-0.3-0.2-0.5h3.1c0.2,0,0.3,0.2,0.4,0.4c1.1,1.9,2.2,3.8,3.2,5.7l0.2,0.4
		l1.9-3.4c0.5-0.9,1-1.8,1.5-2.8c0.1-0.1,0.2-0.3,0.4-0.3C39.9,72.2,40.9,72.2,41.9,72.2z"/>
	<path d="M82.8,86.2c-1.9-4.5-3.8-9-5.8-13.5c-0.1-0.2-0.3-0.3-0.5-0.3c-0.6,0-1.3,0-1.9,0c-0.3,0-0.5,0.1-0.6,0.4
		c-1.5,3.5-3,6.9-4.5,10.4c-0.5,1-0.9,2.1-1.4,3.2H70c0.2,0,0.4-0.1,0.4-0.3c0.3-0.8,0.6-1.6,0.9-2.3c0-0.2,0.3-0.3,0.5-0.3H79
		c0.2,0,0.4,0.1,0.5,0.3c0.3,0.8,0.6,1.6,0.9,2.3c0.1,0.2,0.1,0.3,0.4,0.3h2C82.8,86.3,82.8,86.2,82.8,86.2z M78.4,81.9h-6
		c-0.3,0-0.3-0.1-0.2-0.4c0.9-2.1,1.7-4.2,2.6-6.3c0.2-0.5,0.4-1,0.7-1.6c0.9,2.3,1.8,4.5,2.7,6.7c0.2,0.4,0.3,0.8,0.5,1.2
		C78.7,81.8,78.7,81.9,78.4,81.9z"/>
	<path d="M139.8,72.3v1.9c-1.4,0-2.8,0-4.2,0c-0.3,0-0.4,0.1-0.4,0.4V86c0,0.4-0.1,0.5-0.5,0.5c-0.5,0-1,0-1.5,0
		c-0.4,0-0.5-0.1-0.5-0.5V75c0-0.8,0-0.8-0.8-0.8h-3.4c-0.3,0-0.4,0-0.4-0.4c0-0.5-0.2-1.2,0.1-1.5c0.3-0.3,1-0.1,1.5-0.1
		L139.8,72.3z"/>
	<path d="M87.2,79.4v-6.6c0-0.4,0.1-0.5,0.5-0.5c0.5,0,1,0,1.5,0c0.4,0,0.4,0.1,0.4,0.4v9.2c0,0.7,0,1.4,0,2.2
		c0,0.4,0.1,0.5,0.5,0.5h5.6c0.4,0,0.4,0.1,0.4,0.4c0,0.4,0,0.9,0,1.3c0,0.2-0.1,0.3-0.3,0.3h-8.4c-0.4,0-0.3-0.2-0.3-0.4L87.2,79.4
		z"/>
	<path d="M100.5,79.4v-6.7c0-0.3,0.1-0.4,0.4-0.4c0.5,0,1,0,1.5,0c0.4,0,0.5,0.1,0.5,0.5c0,3.7,0,7.5,0,11.2c0,0.4,0.1,0.6,0.5,0.6
		c1.8,0,3.7,0,5.5,0c0.5,0,0.6,0.1,0.5,0.6c0,0.4,0,0.8,0,1.2c0,0.2-0.1,0.3-0.3,0.3h-8.4c-0.4,0-0.3-0.2-0.3-0.4L100.5,79.4z"/>
</g>
</svg>
